<?xml version="1.0" encoding="UTF-8" standalone="no"?>
<!DOCTYPE svg PUBLIC "-//W3C//DTD SVG 1.1//EN" "http://www.w3.org/Graphics/SVG/1.1/DTD/svg11.dtd">
<svg width="100%" height="100%" viewBox="0 0 2200 528" version="1.1" xmlns="http://www.w3.org/2000/svg" xmlns:xlink="http://www.w3.org/1999/xlink" xml:space="preserve" xmlns:serif="http://www.serif.com/" style="fill-rule:evenodd;clip-rule:evenodd;stroke-linecap:round;stroke-linejoin:round;stroke-miterlimit:1.5;">
    <g transform="matrix(1.00093,0,0,1.00816,-152.36,-36.2466)">
        <rect x="2.358" y="0.245" width="2497.68" height="595.141" style="fill:rgb(75,130,192);"/>
    </g>
    <g transform="matrix(0.918236,-0.0177551,0.0177551,0.918236,54.1398,-1.92547)">
        <path d="M149.257,141.924C149.507,171.743 151.984,201.479 151.14,231.305C149.531,288.175 143.673,345.772 150.599,402.56C154.138,431.579 153.977,470.039 182.001,486.872C200.192,497.8 221.016,495.844 241.316,495.523C271.5,495.047 301.489,494.15 331.627,492.663C348.047,491.853 365.976,493.259 382.189,489.974C406.429,485.063 438.864,468.802 456.383,450.477C468.942,437.34 475.676,420.891 479.981,403.448C483.822,387.882 485.69,371.878 485.033,355.842C482.093,284.066 403.405,264.374 344.266,262.964C317.037,262.315 262.328,284.44 266.65,319.339C269.745,344.326 298.337,365.357 323.086,362.656C336.027,361.243 348.235,354.431 358.274,346.344C386.392,323.696 391.276,284.491 399.449,251.619C404.796,230.113 411.374,209.084 411.076,186.659C410.83,168.233 408.189,151.579 395.95,137.02C379.789,117.794 354.748,109.519 330.667,105.829C286.909,99.124 237.789,97.178 194.45,107.471C171.721,112.868 143.224,111.642 149.257,141.924Z" style="fill:white;fill-opacity:0;stroke:white;stroke-width:49.91px;"/>
        <path d="M556.481,418.369C545.402,252.676 799.44,264.081 805.881,384.958C813.636,530.499 564.379,558.346 556.481,418.369Z" style="fill:white;fill-opacity:0;stroke:white;stroke-width:49.91px;"/>
        <path d="M875.158,291.823C882.512,369.798 874.312,418.115 875.172,496.319C875.194,498.329 875.334,492.303 875.369,490.293C875.467,484.714 875.369,479.156 875.184,473.581C874.708,459.328 874.105,444.98 874.488,430.719C875.444,395.056 897.75,358.719 921.769,329.085C957.971,284.419 1043.87,310.139 1066.29,344.737C1095.85,390.37 1096.23,446.248 1087.53,498.09" style="fill:none;stroke:white;stroke-width:49.91px;"/>
        <g transform="matrix(1,0,0,1,1025.91,25.8542)">
            <path d="M149.257,141.924C149.507,171.743 151.984,201.479 151.14,231.305C149.531,288.175 143.673,345.772 150.599,402.56C154.138,431.579 153.977,470.039 182.001,486.872C200.192,497.8 221.016,495.844 241.316,495.523C271.5,495.047 301.489,494.15 331.627,492.663C348.047,491.853 365.976,493.259 382.189,489.974C406.429,485.063 438.864,468.802 456.383,450.477C468.942,437.34 475.676,420.891 479.981,403.448C483.822,387.882 485.69,371.878 485.033,355.842C482.093,284.066 403.405,264.374 344.266,262.964C317.037,262.315 262.328,284.44 266.65,319.339C269.745,344.326 298.337,365.357 323.086,362.656C336.027,361.243 348.235,354.431 358.274,346.344C386.392,323.696 391.276,284.491 399.449,251.619C404.796,230.113 411.374,209.084 411.076,186.659C410.83,168.233 408.189,151.579 395.95,137.02C379.789,117.794 354.748,109.519 330.667,105.829C286.909,99.124 237.789,97.178 194.45,107.471C171.721,112.868 143.224,111.642 149.257,141.924Z" style="fill:white;fill-opacity:0;stroke:white;stroke-width:49.91px;"/>
        </g>
        <g transform="matrix(1,0,0,1,1025.91,25.8542)">
            <path d="M556.481,418.369C545.402,252.676 799.44,264.081 805.881,384.958C813.636,530.499 564.379,558.346 556.481,418.369Z" style="fill:white;fill-opacity:0;stroke:white;stroke-width:49.91px;"/>
        </g>
        <g transform="matrix(1,0,0,1,1025.91,25.8542)">
            <path d="M875.158,291.823C882.512,369.798 874.312,418.115 875.172,496.319C875.194,498.329 875.334,492.303 875.369,490.293C875.467,484.714 875.369,479.156 875.184,473.581C874.708,459.328 874.105,444.98 874.488,430.719C875.444,395.056 897.75,358.719 921.769,329.085C957.971,284.419 1043.87,310.139 1066.29,344.737C1095.85,390.37 1096.23,446.248 1087.53,498.09" style="fill:none;stroke:white;stroke-width:49.91px;"/>
        </g>
    </g>
</svg>
